<?xml version="1.0" standalone="no"?>
<!DOCTYPE svg PUBLIC "-//W3C//DTD SVG 20010904//EN"
 "http://www.w3.org/TR/2001/REC-SVG-20010904/DTD/svg10.dtd">
<svg version="1.0" xmlns="http://www.w3.org/2000/svg"
 width="700.000000pt" height="700.000000pt" viewBox="0 0 700.000000 700.000000"
 preserveAspectRatio="xMidYMid meet">
<metadata>
Created by potrace 1.11, written by Peter Selinger 2001-2013
</metadata>
<g transform="translate(0.000000,700.000000) scale(0.100000,-0.100000)"
fill="#000000" stroke="none">
<path d="M4155 5375 c-67 -24 -43 28 -310 -665 -86 -223 -177 -459 -203 -525
-26 -66 -47 -122 -47 -125 0 -3 -19 -52 -41 -110 -72 -182 -138 -355 -274
-710 -73 -190 -210 -547 -305 -795 -215 -561 -260 -692 -251 -730 10 -40 57
-82 100 -90 38 -8 115 14 134 38 5 7 62 152 127 322 65 171 137 360 160 420
24 61 118 306 210 545 158 412 218 568 285 740 15 41 54 143 85 225 31 83 60
159 65 170 5 11 19 45 30 75 11 30 24 64 29 75 5 11 26 65 46 120 21 55 44
114 51 130 7 17 20 53 29 80 9 28 23 64 30 80 38 86 213 565 220 604 15 87
-80 157 -170 126z"/>
<path d="M2123 5280 c-29 -12 -1080 -1053 -1438 -1425 -303 -314 -295 -305
-295 -345 0 -57 18 -77 860 -920 695 -696 856 -850 903 -866 80 -29 172 64
152 153 -7 35 -105 137 -930 963 l-663 665 712 715 c391 393 750 759 798 813
77 87 86 101 83 131 -8 92 -98 150 -182 116z"/>
<path d="M4760 5264 c-38 -32 -57 -70 -55 -106 4 -51 3 -51 715 -768 265 -267
570 -574 677 -683 l195 -199 -29 -31 c-15 -17 -319 -323 -674 -681 -909 -915
-894 -899 -882 -959 14 -74 56 -117 120 -122 31 -2 45 5 102 55 163 143 1249
1224 1602 1596 111 117 115 144 37 230 -125 135 -306 320 -834 848 -615 616
-804 800 -849 828 -43 26 -88 23 -125 -8z"/>
</g>
</svg>
