
<svg xmlns="http://www.w3.org/2000/svg" version="1.1" xmlns:xlink="http://www.w3.org/1999/xlink" preserveAspectRatio="none" x="0px" y="0px" width="200px" height="200px" viewBox="0 0 200 200">
<defs>
<g id="Kukd_Logo_0_Layer0_0_FILL">
<path fill="#000000" stroke="none" d="
M 833.75 0.3
Q 829.35 -0.3 825.35 0.3 811.6 2.35 801.45 18.1
L 776.2 118.65
Q 736.15 109.6 699 135.3
L 581.3 15.25
Q 527.95 1.45 513.65 29.05
L 479.8 161.5 417.85 99.1
Q 398.35 66.25 360.2 78.15
L 289.7 118.15 230.6 61.95
Q 192.95 0 137.7 35.75 73.05 274.55 27.65 516.6 12.8 595.7 0 675.15
L 74.35 759
Q 113.15 762.85 141.25 749.4 158.4 741.2 171.55 726.6 172 633.25 187.25 544.15
L 239.65 637.05 310.65 712.35
Q 380.25 718.5 393.1 651.8
L 356.4 583.7
Q 383.2 586.75 400.85 577.8 416.15 570 424.55 553.2 475.5 614.15 527.95 553.2 548.9 553.2 566.05 541.75
L 566.05 558.9
Q 531.25 572.25 539.35 595.6
L 588.45 644.65
Q 615.15 650.85 625.6 635.15 664.2 653.7 689 627.05 719 633.7 739.5 613.7 759.5 625.6 776.2 607.05 801.9 615.6 812.85 599.9 846.2 618.45 862.9 593.7 884.35 559.85 850.05 549.85 866.25 522.7 863.85 493.65 927.2 454.1 927.2 383.1
L 881.95 333.55 937.2 95.3 866.7 18.1
Q 848.45 2.35 833.75 0.3
M 816.7 24.8
Q 839.05 21.45 854.8 40 822.65 141.75 803.9 244.85 797.65 279.35 792.85 314 773.8 448.85 831.45 322.1 841.95 317.8 846.7 330.65 796.2 476 744.25 374.5 660.4 466 644.2 365 633.8 300.2 650.45 244.85 659.75 213.85 677.55 185.8 733.3 107.7 784.3 152
L 816.7 24.8
M 670.9 467.9
L 678 473.6
Q 702.3 458.35 713.75 500.75 717.55 477.45 726.6 453.6 748.05 440.25 727.6 510.3 749.95 456 764.75 463.15 774.25 466.95 764.75 512.7 784.75 454.55 799.5 454.1 816.2 454.55 808.1 474.1
L 792.85 519.85
Q 782.35 548.9 803.35 540.8 823.35 534.15 811.45 548.9 772.85 573.2 777.15 534.6 795.25 454.1 765.2 534.6 739.5 589.85 745.2 535.1 756.65 449.8 729.95 535.1 720.45 587.5 712.8 563.65 709.95 543.65 711.4 523.15 690.4 582.75 664.7 580.35 656.1 579.4 651.35 567.5 623.7 609.9 595.1 587.5 570.8 565.1 582.25 529.85 596.55 484.1 624.2 483.15 650.85 482.2 636.55 521.75 618.45 544.15 622.75 512.2 631.35 479.8 610.85 505.05 587 540.3 598.95 568.45 612.75 601.8 646.1 541.75 645.6 538.9 645.6 536.05 643.7 496.5 670.9 467.9
M 530.3 34.8
Q 557 28.1 573.2 40.5 543.2 137.7 524.6 230.6 571.9 170.7 602.8 149.35 635.05 127.05 649.45 146.75 625.75 168.7 602.8 192.95 569.55 228 537.95 267.8 593.2 342.6 636.1 423.1 613.7 447.9 586.05 428.35 554.15 358.8 511.25 297.3 491.7 375 495.05 456.95 496 475.05 456.95 471.7 383.1 545.55 369.25 426.9 332.1 521.25 294.95 499.8 227.75 457.9 304 273.5 325.9 257.3 345.9 262.05 248.25 665.65 394.05 255.4 415.5 241.55 440.25 239.2 365.95 537.45 451.7 447.9 468.35 238.7 530.3 34.8
M 204.4 64.3
Q 170.1 165.35 146.3 266.85 412.15 26.2 393.1 122.95 253.5 222.05 159.15 328.75
L 307.8 591.3
Q 294 635.15 256.35 627.5 228.3 571 196.1 516.6 160.4 456.4 119.6 398.8 109.45 457.65 102.65 516.6 94.8 584.6 91.5 652.75 61.95 682.8 18.6 674.7 30.35 594.15 44.2 516.6 88.7 267.15 154.85 49.1 185.35 30.5 204.4 64.3
M 576.55 444.05
L 605.1 470.3
Q 587 479.35 576.55 499.35
L 576.55 444.05
M 556.05 577.95
Q 559.4 574.65 564.15 574.65 568.9 574.65 572.25 577.95 575.6 581.3 575.6 586.05 575.6 590.85 572.25 594.15 568.9 597.5 564.15 597.5 559.4 597.5 556.05 594.15 552.7 590.85 552.7 586.05 552.7 581.3 556.05 577.95
M 663.75 525.55
L 656.6 525.55
Q 652.75 565.55 669.9 565.1 692.3 560.8 696.15 496.95 696.15 457.9 663.75 525.55
M 761.4 244.45
Q 746.65 243.5 744.25 231.55 784.75 139.6 744.25 165.8 712.8 190.55 693.5 244.85 678.55 286.8 670.9 346.4 668 405 707.1 364.5 745.6 316.05 761.3 244.85 761.35 244.65 761.4 244.45 Z"/>

<path fill="#FFFFFF" stroke="none" d="
M 564.15 574.65
Q 559.4 574.65 556.05 577.95 552.7 581.3 552.7 586.05 552.7 590.85 556.05 594.15 559.4 597.5 564.15 597.5 568.9 597.5 572.25 594.15 575.6 590.85 575.6 586.05 575.6 581.3 572.25 577.95 568.9 574.65 564.15 574.65
M 146.3 266.85
Q 170.1 165.35 204.4 64.3 185.35 30.5 154.85 49.1 88.7 267.15 44.2 516.6 30.35 594.15 18.6 674.7 61.95 682.8 91.5 652.75 94.8 584.6 102.65 516.6 109.45 457.65 119.6 398.8 160.4 456.4 196.1 516.6 228.3 571 256.35 627.5 294 635.15 307.8 591.3
L 159.15 328.75
Q 253.5 222.05 393.1 122.95 412.15 26.2 146.3 266.85
M 160.2 51.45
Q 172.8 44.5 181.9 49.6 137.1 167 71.1 408.25 109.8 223.5 160.2 51.45
M 380.95 100.5
Q 339.55 119.6 149.8 271.7 344.5 96.95 380.95 100.5
M 573.2 40.5
Q 557 28.1 530.3 34.8 468.35 238.7 451.7 447.9 365.95 537.45 440.25 239.2 415.5 241.55 394.05 255.4 248.25 665.65 345.9 262.05 325.9 257.3 304 273.5 227.75 457.9 294.95 499.8 332.1 521.25 369.25 426.9 383.1 545.55 456.95 471.7 496 475.05 495.05 456.95 491.7 375 511.25 297.3 554.15 358.8 586.05 428.35 613.7 447.9 636.1 423.1 593.2 342.6 537.95 267.8 569.55 228 602.8 192.95 625.75 168.7 649.45 146.75 635.05 127.05 602.8 149.35 571.9 170.7 524.6 230.6 543.2 137.7 573.2 40.5
M 535.7 39.95
Q 544.3 36.4 551.2 39.95 533.65 48.45 473.55 303.55 503.85 136.2 535.7 39.95
M 635 141.65
Q 622.65 148.3 602.8 164.45 574 187.9 529.55 231.5 574.3 177.95 602.8 156.3 623 141 635 141.65
M 419.8 248.8
Q 425.6 245.05 434.5 244.45 415.7 298 404.65 384.5 409.05 318.05 419.8 248.8
M 307.9 275.95
Q 316.05 269.9 321.25 268.25 265.7 383.15 278.9 472.35 251.75 423.5 307.9 275.95
M 678 473.6
L 670.9 467.9
Q 643.7 496.5 645.6 536.05 645.6 538.9 646.1 541.75 612.75 601.8 598.95 568.45 587 540.3 610.85 505.05 631.35 479.8 622.75 512.2 618.45 544.15 636.55 521.75 650.85 482.2 624.2 483.15 596.55 484.1 582.25 529.85 570.8 565.1 595.1 587.5 623.7 609.9 651.35 567.5 656.1 579.4 664.7 580.35 690.4 582.75 711.4 523.15 709.95 543.65 712.8 563.65 720.45 587.5 729.95 535.1 756.65 449.8 745.2 535.1 739.5 589.85 765.2 534.6 795.25 454.1 777.15 534.6 772.85 573.2 811.45 548.9 823.35 534.15 803.35 540.8 782.35 548.9 792.85 519.85
L 808.1 474.1
Q 816.2 454.55 799.5 454.1 784.75 454.55 764.75 512.7 774.25 466.95 764.75 463.15 749.95 456 727.6 510.3 748.05 440.25 726.6 453.6 717.55 477.45 713.75 500.75 702.3 458.35 678 473.6
M 656.6 525.55
L 663.75 525.55
Q 696.15 457.9 696.15 496.95 692.3 560.8 669.9 565.1 652.75 565.55 656.6 525.55
M 854.8 40
Q 839.05 21.45 816.7 24.8
L 784.3 152
Q 733.3 107.7 677.55 185.8 659.75 213.85 650.45 244.85 633.8 300.2 644.2 365 660.4 466 744.25 374.5 796.2 476 846.7 330.65 841.95 317.8 831.45 322.1 773.8 448.85 792.85 314 797.65 279.35 803.9 244.85 822.65 141.75 854.8 40
M 840.65 34.9
Q 847.1 37.15 849.95 41.25 812.75 144.15 798.85 244.45 806.5 128.8 840.65 34.9
M 748.25 142.95
Q 749.2 145.9 745.6 147.3 691.1 167.9 665.35 244.85 650.75 288.45 645.35 350.15 644.2 289.15 656.65 244.85 678.6 166.95 742.75 140.7 746.25 139.65 748.25 142.95
M 744.25 231.55
Q 746.65 243.5 761.4 244.45 761.35 244.65 761.3 244.85 745.6 316.05 707.1 364.5 668 405 670.9 346.4 678.55 286.8 693.5 244.85 712.8 190.55 744.25 165.8 784.75 139.6 744.25 231.55 Z"/>

<path fill="#D1D3D4" stroke="none" d="
M 149.8 271.7
Q 339.55 119.6 380.95 100.5 344.5 96.95 149.8 271.7
M 181.9 49.6
Q 172.8 44.5 160.2 51.45 109.8 223.5 71.1 408.25 137.1 167 181.9 49.6
M 321.25 268.25
Q 316.05 269.9 307.9 275.95 251.75 423.5 278.9 472.35 265.7 383.15 321.25 268.25
M 434.5 244.45
Q 425.6 245.05 419.8 248.8 409.05 318.05 404.65 384.5 415.7 298 434.5 244.45
M 602.8 164.45
Q 622.65 148.3 635 141.65 623 141 602.8 156.3 574.3 177.95 529.55 231.5 574 187.9 602.8 164.45
M 551.2 39.95
Q 544.3 36.4 535.7 39.95 503.85 136.2 473.55 303.55 533.65 48.45 551.2 39.95
M 745.6 147.3
Q 749.2 145.9 748.25 142.95 746.25 139.65 742.75 140.7 678.6 166.95 656.65 244.85 644.2 289.15 645.35 350.15 650.75 288.45 665.35 244.85 691.1 167.9 745.6 147.3
M 849.95 41.25
Q 847.1 37.15 840.65 34.9 806.5 128.8 798.85 244.45 812.75 144.15 849.95 41.25 Z"/>
</g>
</defs>

<g transform="matrix( 0.2125701904296875, 0, 0, 0.2125701904296875, 0.35,19.2) ">
<g transform="matrix( 1, 0, 0, 1, 0,0) ">
<use xlink:href="#Kukd_Logo_0_Layer0_0_FILL"/>
</g>
</g>
</svg>
